<?xml version="1.0" encoding="UTF-8" standalone="no"?>
<!-- Created with Inkscape (http://www.inkscape.org/) -->

<svg
   xmlns:dc="http://purl.org/dc/elements/1.1/"
   xmlns:cc="http://creativecommons.org/ns#"
   xmlns:rdf="http://www.w3.org/1999/02/22-rdf-syntax-ns#"
   xmlns:svg="http://www.w3.org/2000/svg"
   xmlns="http://www.w3.org/2000/svg"
   xmlns:xlink="http://www.w3.org/1999/xlink"
   version="1.1"
   width="382"
   height="468"
   id="svg2">
  <defs
     id="defs4" />
  <metadata
     id="metadata7">
    <rdf:RDF>
      <cc:Work
         rdf:about="">
        <dc:format>image/svg+xml</dc:format>
        <dc:type
           rdf:resource="http://purl.org/dc/dcmitype/StillImage" />
        <dc:title></dc:title>
      </cc:Work>
    </rdf:RDF>
  </metadata>
  <g
     transform="translate(0,-584.36217)"
     id="layer1"
     style="display:none">
    <image
       xlink:href="file:///home/nak/Pictures/vlcsnap-2012-09-15-08h10m24s119.png"
       x="-280.39166"
       y="201.39018"
       width="1151.1372"
       height="647.51465"
       id="image2993" />
  </g>
  <g
     transform="translate(0,-584.36217)"
     id="layer2">
    <g
       transform="translate(-225.13267,295.66606)"
       id="g3829">
      <path
         d="m 315.71429,503.43361 c -94.66135,-10.45218 -142.58783,-160.1972 9.29054,-202.65596 110.26456,-30.8253 206.58079,97.96842 88.92374,183.72738 4.35459,60.78134 -41.32044,196.59759 44.4516,173.71937 13.00026,-3.4676 5.88073,-58.28224 27.1775,-86.15268 31.48361,-41.20163 84.22541,-11.84598 92.65662,24.57618 37.5771,16.63839 34.52597,45.14618 2.37089,53.67357 -17.10782,4.53692 -32.72163,-2.58686 -40.15357,-11.86929 0.10501,151.58724 -253.4749,161.84823 -235.61808,-12.37437 4.13721,-40.36525 15.88956,-79.6072 10.90076,-122.6442 z"
         id="path2997"
         style="fill:#28eca3;fill-opacity:1;stroke:#000000;stroke-width:1px;stroke-linecap:butt;stroke-linejoin:miter;stroke-opacity:1" />
      <path
         d="m 317.5,521.29075 c 33.43183,10.38286 65.11781,6.51343 95.69262,-12.62627 -1.7604,18.20114 -3.01542,37.0761 -5.69262,54.05484 -30.78103,19.41191 -62.19772,18.48254 -93.92857,7.5 1.66708,-16.19034 4.12855,-32.11588 3.92857,-48.92857 z"
         id="path3793"
         style="fill:#20c18b;fill-opacity:1;stroke:none" />
      <path
         d="m 267.32143,309.68361 13.57143,24.10714 c 11.22886,0.33927 20.49487,-4.92961 28.39285,-14.10714 l -9.10714,-29.10714 -4.28571,16.60714 -15.17857,-10.53571 -0.35715,15.17857 z"
         id="path2999"
         style="fill:#fecf12;fill-opacity:1;stroke:#000000;stroke-width:1px;stroke-linecap:butt;stroke-linejoin:miter;stroke-opacity:1" />
      <path
         d="m 267.43788,413.06189 a 5.9346461,5.9346461 0 1 1 -11.86929,0 5.9346461,5.9346461 0 1 1 11.86929,0 z"
         transform="translate(-0.25253814,-3.788072)"
         id="path3001"
         style="fill:#ffffff;fill-opacity:1;fill-rule:nonzero;stroke:#000000;stroke-width:2.29999995;stroke-miterlimit:4;stroke-opacity:1;stroke-dasharray:none" />
      <path
         d="m 267.43788,413.06189 a 5.9346461,5.9346461 0 1 1 -11.86929,0 5.9346461,5.9346461 0 1 1 11.86929,0 z"
         transform="translate(97.78248,-23.913994)"
         id="path3001-6"
         style="fill:#ffffff;fill-opacity:1;fill-rule:nonzero;stroke:#000000;stroke-width:2.29999995;stroke-miterlimit:4;stroke-opacity:1;stroke-dasharray:none" />
      <path
         d="m 295.71429,423.07647 c 7.15616,10.59125 38.3235,3.90883 28.57142,-14.64286 -9.61929,3.41394 -18.95609,8.36932 -28.57142,14.64286 z"
         id="path3789"
         style="fill:#1a3f2b;fill-opacity:1;stroke:#000000;stroke-width:1px;stroke-linecap:butt;stroke-linejoin:miter;stroke-opacity:1" />
      <path
         d="m 298.64113,421.06281 c 3.00129,2.44516 6.48672,5.95898 4.476,-2.65897 6.11328,4.9371 6.65602,2.00269 5.72753,-3.01064 3.16026,1.84538 7.29652,6.5508 6.44338,-3.36463 6.94879,7.01871 5.05109,3.5e-4 5.90455,-2.6527"
         id="path3791"
         style="fill:#ffffff;stroke:#000000;stroke-width:1px;stroke-linecap:butt;stroke-linejoin:round;stroke-opacity:1" />
      <path
         d="m 305.41842,625.36113 c 33.43183,10.38286 69.40723,8.67795 99.98204,-10.46175 1.43265,19.31569 5.24734,27.78136 9.74747,34.49492 -2.2096,31.91191 -60.49495,70.31159 -92.2258,59.32905 -15.38484,-22.34892 -21.05231,-51.63982 -17.50371,-83.36222 z"
         id="path3793-8"
         style="fill:#20c18b;fill-opacity:1;stroke:none" />
      <path
         d="m 437.96175,661.22576 c 11.24683,-1.26049 24.68866,0.66771 26.28064,-9.80874 50.2008,8.65821 55.37417,47.4789 54.32904,54.51659 -32.59746,43.19964 -82.19465,47.65066 -98.31889,48.06635 14.45966,-21.50769 39.92399,-31.01407 17.70921,-92.7742 z"
         id="path3813"
         style="fill:#20c18b;fill-opacity:1;stroke:none" />
      <path
         d="m 577.63766,595.68766 c -5.40909,19.84472 -18.12528,30.36204 -36.99683,36.7443 -18.06311,-27.60425 -41.74659,-34.63885 -67.88944,-28.57751 14.29811,-73.01126 88.70302,-60.99254 104.88627,-8.16679 z"
         id="path3827"
         style="fill:#20c18b;fill-opacity:1;stroke:none" />
      <path
         d="m 540.43161,638.32591 c -0.0354,-6.89123 2.30516,-14.52591 8.08122,-21.97082"
         id="path3815"
         style="fill:none;stroke:#000000;stroke-width:1px;stroke-linecap:round;stroke-linejoin:miter;stroke-opacity:1" />
      <path
         d="m 578.2492,596.84652 c 1.61225,5.71846 3.84197,10.52397 6.12405,11.55362"
         id="path3817"
         style="fill:none;stroke:#000000;stroke-width:1px;stroke-linecap:round;stroke-linejoin:miter;stroke-opacity:1" />
      <path
         d="m 315.65035,503.44056 c 4.16501,0.2342 7.1295,-0.50513 9.61877,-1.61152"
         id="path3819"
         style="fill:none;stroke:#000000;stroke-width:1px;stroke-linecap:butt;stroke-linejoin:miter;stroke-opacity:1" />
      <path
         d="m 413.97314,484.46705 c -3.69517,2.9655 -7.30385,3.34139 -10.92227,4.23001"
         id="path3821"
         style="fill:none;stroke:#000000;stroke-width:1px;stroke-linecap:butt;stroke-linejoin:miter;stroke-opacity:1" />
    </g>
  </g>
</svg>
