<?xml version="1.0" encoding="UTF-8" standalone="no"?>
<!-- Created with Inkscape (http://www.inkscape.org/) -->

<svg
   xmlns:dc="http://purl.org/dc/elements/1.1/"
   xmlns:cc="http://creativecommons.org/ns#"
   xmlns:rdf="http://www.w3.org/1999/02/22-rdf-syntax-ns#"
   xmlns:svg="http://www.w3.org/2000/svg"
   xmlns="http://www.w3.org/2000/svg"
   xmlns:xlink="http://www.w3.org/1999/xlink"
   xmlns:sodipodi="http://sodipodi.sourceforge.net/DTD/sodipodi-0.dtd"
   xmlns:inkscape="http://www.inkscape.org/namespaces/inkscape"
   width="744.09448819"
   height="1052.3622047"
   id="svg2"
   version="1.1"
   inkscape:version="0.48.3.1 r9886"
   sodipodi:docname="jakemeditate.svg">
  <defs
     id="defs4" />
  <sodipodi:namedview
     id="base"
     pagecolor="#ffffff"
     bordercolor="#666666"
     borderopacity="1.0"
     inkscape:pageopacity="0.0"
     inkscape:pageshadow="2"
     inkscape:zoom="1.979899"
     inkscape:cx="464.03688"
     inkscape:cy="532.05592"
     inkscape:document-units="px"
     inkscape:current-layer="layer2"
     showgrid="false"
     inkscape:window-width="1920"
     inkscape:window-height="1030"
     inkscape:window-x="0"
     inkscape:window-y="28"
     inkscape:window-maximized="1" />
  <metadata
     id="metadata7">
    <rdf:RDF>
      <cc:Work
         rdf:about="">
        <dc:format>image/svg+xml</dc:format>
        <dc:type
           rdf:resource="http://purl.org/dc/dcmitype/StillImage" />
        <dc:title></dc:title>
      </cc:Work>
    </rdf:RDF>
  </metadata>
  <g
     inkscape:label="Reference"
     inkscape:groupmode="layer"
     id="layer1"
     style="display:none"
     sodipodi:insensitive="true">
    <image
       y="243.25502"
       x="-125.71425"
       id="image3047"
       xlink:href="file:///home/nak/Desktop/jake.png"
       height="498.21429"
       width="885.71429" />
  </g>
  <g
     inkscape:groupmode="layer"
     id="layer2"
     inkscape:label="SVG"
     style="display:inline">
    <g
       id="g3127">
      <path
         sodipodi:nodetypes="cssssssscssc"
         inkscape:connector-curvature="0"
         id="path3057"
         d="m 333.03572,512.63003 c 9.92995,61.29192 -23.2085,100.67469 -63.32415,67.67224 -7.82856,-6.44042 -2.01718,-31.97009 7.73314,-35.13137 8.69259,-2.81834 7.96583,-22.08211 -3.39488,-25.84013 -2.7883,-0.92234 -10.79048,1.45551 -6.01411,7.67427 8.65386,11.26721 1.12433,13.51315 -5.26786,13.30357 -10.87526,-0.35656 -13.14782,-14.61441 1.5625,-16.69643 3.28716,-0.46525 2.37952,-5.45843 0.40178,-6.69643 -4.7923,-2.99983 -18.65462,-6.47553 -22.94643,14.73215 -1.84113,-5.80408 -1.70604,-10.03574 -5.80357,-14.33036 -5.54872,-5.81561 -10.63732,1.45883 -7.93335,6.47051 l 6.50478,12.05627"
         style="fill:none;stroke:#000000;stroke-width:1px;stroke-linecap:butt;stroke-linejoin:miter;stroke-opacity:1" />
      <path
         sodipodi:nodetypes="cscccssscccscccccc"
         inkscape:connector-curvature="0"
         id="path3083"
         d="m 228.26659,524.50186 c -7.61694,1.81716 -5.98604,5.42822 -5.147,8.35093 2.3605,8.22253 10.63383,16.03102 19.44329,23.7139 -0.42957,35.81961 15.7517,50.55624 41.54252,53.09614 14.29581,1.06314 27.82917,0.81922 39.70196,-2.12847 -51.20589,33.57105 6.94243,65.63947 44.7664,71.29261 50.41129,7.53443 127.33276,-30.68188 129.65761,-43.79887 l 5.94455,-33.53961 c 0.39887,-2.25048 -1.67603,-4.75121 -7.47949,-2.78702 -1.29568,-3.37657 -4.7493,-4.09443 -9.162,-3.45773 -7.88204,-5.50183 -12.4179,8.82147 -16.55081,28.56122 -27.35282,14.45104 -88.4328,57.91528 -128.66818,12.56378 -7.21752,-8.13526 -7.10473,-50.11629 5.17703,-43.91007 1.55397,-6.46683 12.84028,-4.26508 12.9939,-0.44191 11.00346,-7.98666 8.64902,23.74324 12.1922,34.3633 15.49826,9.28665 31.75245,18.45608 53.92857,20.65749 m -79.05153,-54.54732 3.283,14.39468"
         style="fill:none;stroke:#000000;stroke-width:1px;stroke-linecap:butt;stroke-linejoin:miter;stroke-opacity:1" />
      <path
         sodipodi:nodetypes="cccc"
         inkscape:connector-curvature="0"
         id="path3087"
         d="m 337.67521,495.30624 c 5.56509,20.16192 -24.285,32.85061 -14.82142,-3.83929 18.03245,-67.06752 160.94815,-60.01031 176.10686,1.1579 9.536,36.9613 -20.31409,24.27261 -14.749,4.11069"
         style="fill:none;stroke:#000000;stroke-width:1px;stroke-linecap:butt;stroke-linejoin:miter;stroke-opacity:1;display:inline" />
    </g>
    <g
       id="g3167"
       transform="translate(-24.832261,-10.651151)">
      <path
         sodipodi:nodetypes="cssssssscssc"
         inkscape:connector-curvature="0"
         id="path3057-7"
         d="m 513.6834,524.71048 c -9.92995,61.29192 23.2085,100.67469 63.32415,67.67224 7.82856,-6.44042 14.10032,-33.04325 3.88361,-33.86868 -11.5192,-0.93067 -14.52587,-19.85141 -6.07529,-23.56729 2.85466,-1.25525 8.16545,-0.0765 7.40306,3.50739 -1.75257,8.2387 1.46051,9.87778 4.38398,10.39939 6.36007,1.13476 9.32835,-7.71609 -0.29981,-10.50925 -2.377,-0.68957 -4.64691,-1.54167 -3.81104,-4.8024 1.16503,-4.54477 12.84624,-9.63225 19.53716,10.18647 3.75186,-4.19724 4.41373,-5.73709 5.80357,-16.72947 0.61651,-4.87601 10.07263,-2.68256 8.18589,5.96543 -1.58648,7.27175 -3.61819,12.48857 -6.75732,15.71807"
         style="fill:none;stroke:#000000;stroke-width:1px;stroke-linecap:butt;stroke-linejoin:miter;stroke-opacity:1" />
      <path
         sodipodi:nodetypes="cscccc"
         inkscape:connector-curvature="0"
         id="path3083-3"
         d="m 616.57382,530.78028 c 8.14775,-1.89857 7.04478,6.0044 5.63675,12.25892 -1.88471,8.37197 -2.42634,10.09638 -11.2358,17.77926 0.42957,35.81961 -22.57023,58.38492 -48.36105,60.92482 -14.29581,1.06314 -21.13691,1.82937 -33.0825,-1.13643 60.6095,40.37121 -21.87673,80.89549 -83.56005,64.51473"
         style="fill:none;stroke:#000000;stroke-width:1px;stroke-linecap:butt;stroke-linejoin:miter;stroke-opacity:1" />
    </g>
    <path
       style="fill:none;stroke:#000000;stroke-width:1px;stroke-linecap:butt;stroke-linejoin:miter;stroke-opacity:1"
       d="m 487.41072,595.38674 -3.125,9.65401"
       id="path3172"
       inkscape:connector-curvature="0"
       sodipodi:nodetypes="cc" />
    <path
       style="fill:none;stroke:#000000;stroke-width:1px;stroke-linecap:butt;stroke-linejoin:miter;stroke-opacity:1"
       d="m 360.52909,592.25054 c 0.22039,4.22896 0.0578,8.64941 0.0867,12.97411"
       id="path3182"
       inkscape:connector-curvature="0"
       sodipodi:nodetypes="cc" />
    <path
       style="fill:none;stroke:#000000;stroke-width:1px;stroke-linecap:butt;stroke-linejoin:miter;stroke-opacity:1"
       d="m 496.875,598.61218 -2.58928,8.57143"
       id="path3192"
       inkscape:connector-curvature="0" />
    <path
       sodipodi:type="arc"
       style="fill:#000000;fill-opacity:1;stroke:#000000;stroke-width:0;stroke-linecap:square;stroke-miterlimit:4;stroke-opacity:1;stroke-dasharray:none"
       id="path3962"
       sodipodi:cx="409.64285"
       sodipodi:cy="528.43359"
       sodipodi:rx="13.214286"
       sodipodi:ry="9.4642859"
       d="m 412.45784,519.18655 a 13.214286,9.4642859 0 1 1 -1.04253,-0.13172"
       sodipodi:start="4.9270598"
       sodipodi:end="11.130112"
       sodipodi:open="true"
       transform="translate(-0.625,0)" />
    <path
       style="fill:none;stroke:#000000;stroke-width:1px;stroke-linecap:butt;stroke-linejoin:miter;stroke-opacity:1"
       d="m 400.53572,551.82647 15.35714,0.0893"
       id="path3964"
       inkscape:connector-curvature="0" />
    <path
       style="fill:none;stroke:#000000;stroke-width:1px;stroke-linecap:butt;stroke-linejoin:miter;stroke-opacity:1"
       d="m 398.66072,533.43361 c -3.95694,9.02724 -5.06249,24.89408 -9.0485,30.22824 -5.36681,7.18196 -25.11017,11.43479 -35.00897,-4.94507 -16.10871,-26.65559 16.44085,-67.99157 52.96764,-69.67547 46.09303,-2.1249 70.21276,45.6586 56.7557,73.70315 -8.2797,17.25493 -27.63814,11.63907 -35.00897,4.94507 -6.5329,-5.93301 -6.35425,-23.72638 -10.31119,-32.75362"
       id="path3966"
       inkscape:connector-curvature="0"
       sodipodi:nodetypes="csssssc" />
    <path
       style="fill:none;stroke:#000000;stroke-width:1px;stroke-linecap:butt;stroke-linejoin:miter;stroke-opacity:1"
       d="m 459.36687,503.84935 15.15229,0.12627"
       id="path3986"
       inkscape:connector-curvature="0" />
    <path
       style="fill:none;stroke:#000000;stroke-width:1px;stroke-linecap:butt;stroke-linejoin:miter;stroke-opacity:1"
       d="m 345.47217,502.08158 14.01587,0"
       id="path3988"
       inkscape:connector-curvature="0" />
  </g>
</svg>
